<svg width="36" height="36" viewBox="0 0 36 36" fill="none" xmlns="http://www.w3.org/2000/svg">
<rect x="8" y="8" width="2" height="2" fill="white"/>
<rect x="14" y="8" width="2" height="2" fill="white"/>
<rect x="20" y="8" width="2" height="2" fill="white"/>
<rect x="26" y="8" width="2" height="2" fill="white"/>
<rect x="8" y="14" width="2" height="2" fill="white"/>
<rect x="14" y="14" width="2" height="2" fill="white"/>
<rect x="20" y="14" width="2" height="2" fill="white"/>
<rect x="26" y="14" width="2" height="2" fill="white"/>
<rect x="8" y="20" width="2" height="2" fill="white"/>
<rect x="14" y="20" width="2" height="2" fill="white"/>
<rect x="20" y="20" width="2" height="2" fill="white"/>
<rect x="26" y="20" width="2" height="2" fill="white"/>
<rect x="8" y="26" width="2" height="2" fill="white"/>
<rect x="14" y="26" width="2" height="2" fill="white"/>
<rect x="20" y="26" width="2" height="2" fill="white"/>
<rect x="26" y="26" width="2" height="2" fill="white"/>
</svg>
