<svg width="155" height="31" viewBox="0 0 155 31" fill="none" xmlns="http://www.w3.org/2000/svg">
<path d="M15.9324 20.3555L13.2569 30.5402H9.91992L12.5954 20.3555H15.9324Z" fill="white"/>
<path d="M21.9441 10.1797L19.2687 20.3644H15.9316L18.6071 10.1797H21.9441Z" fill="white"/>
<path d="M0 30.5612H3.3371L4.67324 25.4688H1.33614L0 30.5612Z" fill="white"/>
<path d="M4.66992 25.4674H8.00702L9.34316 20.375H6.00606L4.66992 25.4674Z" fill="white"/>
<path d="M19.9199 30.5501H23.2569L27.2698 15.2773H23.9328L19.9199 30.5501Z" fill="white"/>
<path d="M27.2695 15.2728H30.6066L34.6194 0H31.2824L27.2695 15.2728Z" fill="white"/>
<path d="M144.931 14.7097H147.938V30.4032H144.931V14.7097ZM137.869 13.3203H155V15.9625H137.869V13.3203Z" fill="white"/>
<path d="M124.188 26.4855V24.0028H136.125V26.4855H124.188ZM132.116 13.3203L140.317 30.4032H137.105L129.656 14.4592H130.817L123.368 30.4032H120.156L128.357 13.3203H132.116Z" fill="white"/>
<path d="M112.54 14.7097H115.547V30.4032H112.54V14.7097ZM105.479 13.3203H122.609V15.9625H105.479V13.3203Z" fill="white"/>
<path d="M105.091 23.637C104.939 25.034 104.446 26.2715 103.61 27.3496C102.79 28.4126 101.712 29.2401 100.376 29.8323C99.0392 30.4246 97.513 30.7207 95.7968 30.7207C93.8833 30.7207 92.2052 30.3486 90.7624 29.6046C89.3197 28.8605 88.1958 27.828 87.3909 26.5069C86.586 25.1706 86.1836 23.6218 86.1836 21.8603C86.1836 20.0989 86.586 18.5576 87.3909 17.2366C88.1958 15.9003 89.3197 14.8601 90.7624 14.1161C92.2052 13.372 93.8833 13 95.7968 13C97.513 13 99.0392 13.2961 100.376 13.8883C101.712 14.4805 102.79 15.3081 103.61 16.371C104.446 17.434 104.939 18.6715 105.091 20.0837H102.061C101.894 19.1726 101.53 18.3906 100.968 17.7377C100.421 17.0847 99.7075 16.5836 98.8266 16.2344C97.9458 15.8699 96.9283 15.6877 95.7741 15.6877C94.4376 15.6877 93.2758 15.9383 92.2887 16.4394C91.3167 16.9405 90.565 17.6541 90.0335 18.5804C89.5019 19.5067 89.2361 20.6 89.2361 21.8603C89.2361 23.1207 89.5019 24.214 90.0335 25.1402C90.565 26.0665 91.3167 26.7802 92.2887 27.2813C93.2758 27.7824 94.4376 28.033 95.7741 28.033C96.9283 28.033 97.9458 27.8583 98.8266 27.5091C99.7075 27.1598 100.421 26.6587 100.968 26.0058C101.53 25.3377 101.894 24.548 102.061 23.637H105.091Z" fill="white"/>
<path d="M66.334 13.3203H69.341V30.4032H66.334V13.3203ZM80.2299 13.3203H83.2369V30.4032H80.2299V13.3203ZM67.9514 20.4724H81.6651V23.1145H67.9514V20.4724Z" fill="white"/>
<path d="M44.7832 30.4032V13.3203H47.6991V28.991L46.674 28.8088L58.588 13.3203H62.5062V30.4032H59.5903V14.5958L60.6155 14.7781L48.6103 30.4032H44.7832Z" fill="white"/>
</svg>
